<?xml version="1.0" encoding="utf-8"?>
<!-- Generator: Adobe Illustrator 17.0.0, SVG Export Plug-In . SVG Version: 6.00 Build 0)  -->
<!DOCTYPE svg PUBLIC "-//W3C//DTD SVG 1.1//EN" "http://www.w3.org/Graphics/SVG/1.1/DTD/svg11.dtd">
<svg version="1.1" id="Layer_1" xmlns="http://www.w3.org/2000/svg" xmlns:xlink="http://www.w3.org/1999/xlink" x="0px" y="0px"
	 width="980px" height="360px" viewBox="0 0 980 360" enable-background="new 0 0 980 360" xml:space="preserve">
<g>
	<g>
		<path fill="#ED1C68" d="M326.75,289.95c0,15.84-12.96,28.8-28.8,28.8H78.05c-15.84,0-28.8-12.96-28.8-28.8V70.05
			c0-15.84,12.96-28.8,28.8-28.8h219.9c15.84,0,28.8,12.96,28.8,28.8V289.95z"/>
	</g>
	<path fill="#FFFFFF" d="M159.883,82.038c-37.45,0-68.257,29.629-69.8,66.962h-0.028v55.969c0,0.331,0.026,0.654,0.048,0.978h-0.047
		v53.813h0c-0.028,0.816-0.062,1.631-0.062,2.455v55.969c0,0.192,0.021,0.378,0.028,0.568h27.511
		c0.007-0.19,0.028-0.376,0.028-0.568v-55.014c0.035-0.413,0.061-0.829,0.061-1.253v-1.197c0.021-0.32,0.044-0.639,0.062-0.959
		h-0.062v-53.813h-0.047c0.022-0.324,0.048-0.647,0.048-0.978v-55.494h0.062c1.277-22.239,19.639-39.87,42.201-39.87
		c23.39,0,42.324,18.935,42.324,42.325v55.969c0,7.796,6.126,13.922,13.644,13.922c7.796,0,13.921-6.126,13.921-13.922v-55.969
		C229.772,113.225,198.309,82.038,159.883,82.038z"/>
	<path fill="#FFFFFF" d="M258.469,41.25c-0.007,0.19-0.028,0.376-0.028,0.568v55.014c-0.035,0.413-0.061,0.829-0.061,1.253v1.197
		c-0.021,0.32-0.044,0.639-0.062,0.959h0.062v53.813h0.047c-0.022,0.324-0.048,0.647-0.048,0.978v55.494h-0.062
		c-1.277,22.239-19.639,39.87-42.201,39.87c-23.39,0-42.324-18.935-42.324-42.325v-55.969c0-7.796-6.126-13.922-13.644-13.922
		c-7.796,0-13.921,6.126-13.921,13.922v55.969c0,38.704,31.463,69.891,69.889,69.891c37.45,0,68.257-29.629,69.8-66.962h0.028
		v-55.969c0-0.331-0.026-0.654-0.048-0.978h0.047v-53.813h0c0.028-0.816,0.062-1.631,0.062-2.455V41.818
		c0-0.192-0.021-0.378-0.028-0.568H258.469z"/>
</g>
<g>
	<path fill="#ED1C68" d="M484.009,179.578v45.144c0,6.288-4.941,11.229-11.229,11.229c-6.064,0-11.006-4.941-11.006-11.229v-45.144
		c0-18.866-15.272-34.138-34.138-34.138c-18.866,0-34.139,15.272-34.139,34.138v45.144c0,6.288-4.941,11.229-11.229,11.229
		c-6.064,0-11.005-4.941-11.005-11.229v-45.144c0-31.219,25.379-56.373,56.373-56.373S484.009,148.359,484.009,179.578z"/>
	<path fill="#ED1C68" d="M587.765,134.435v56.373v0.225c-0.225,24.93-20.438,45.144-45.593,45.144
		c-24.93,0-45.144-20.214-45.367-45.144v-0.225v-56.373c0-6.064,4.94-11.005,11.005-11.005c6.288,0,11.229,4.941,11.229,11.005
		v56.148c0,12.802,10.331,23.358,23.133,23.358c13.026,0,23.358-10.557,23.358-23.358v-56.148c0-6.064,4.94-11.005,11.229-11.005
		C582.825,123.43,587.765,128.371,587.765,134.435z"/>
	<path fill="#ED1C68" d="M691.297,217.983c3.817,4.941,2.919,11.903-2.021,15.497c-2.021,1.572-4.268,2.471-6.738,2.471
		c-3.368,0-6.513-1.572-8.759-4.268l-26.277-33.913l-26.277,33.913c-2.246,2.695-5.391,4.268-8.76,4.268
		c-2.471,0-4.716-0.898-6.737-2.471c-4.941-3.594-5.84-10.556-2.021-15.497l29.646-38.405l-29.646-38.406
		c-3.818-4.941-2.92-11.903,2.021-15.722c4.716-3.818,11.679-2.919,15.497,2.021l26.277,33.914l26.277-33.914
		c3.818-4.941,10.78-5.839,15.497-2.021c4.94,3.818,5.839,10.781,2.021,15.722l-29.646,38.406L691.297,217.983z"/>
	<path fill="#ED1C68" d="M710.605,97.826c-2.021-2.021-3.368-4.941-3.368-7.861c0-2.919,1.347-5.839,3.368-7.861
		c2.021-2.021,4.941-3.369,7.861-3.369s5.839,1.348,7.86,3.369c2.021,2.021,3.145,4.941,3.145,7.861c0,2.92-1.123,5.84-3.145,7.861
		c-2.021,2.021-4.94,3.145-7.86,3.145S712.626,99.847,710.605,97.826z M707.237,224.946v-90.512c0-6.064,4.94-11.005,11.229-11.005
		c6.063,0,11.005,4.941,11.005,11.005v90.512c0,6.288-4.941,11.229-11.005,11.229C712.177,236.176,707.237,231.234,707.237,224.946z
		"/>
	<path fill="#ED1C68" d="M820.429,134.21c0,6.289-4.941,11.23-11.229,11.23h-19.765v79.282c0,6.288-4.94,11.229-11.229,11.229
		c-6.063,0-11.005-4.941-11.005-11.229V145.44h-12.353c-6.064,0-11.006-4.941-11.006-11.23c0-6.064,4.941-11.005,11.006-11.005
		h12.353c-0.225-15.946,5.614-30.545,16.396-41.326c6.063-6.064,13.026-10.556,21.111-13.251c5.615-2.246,12.128,0.898,14.149,6.738
		c2.021,5.615-0.898,12.128-6.737,14.149c-4.717,1.572-8.984,4.268-12.802,8.085c-6.738,6.738-9.883,15.497-9.883,25.604H809.2
		C815.488,123.205,820.429,128.146,820.429,134.21z"/>
	<path fill="#ED1C68" d="M923.737,135.108v110.725c0,25.38-20.887,46.267-46.49,46.267c-17.743,0-33.689-10.106-41.551-26.053
		c-2.694-5.391-0.449-12.128,5.166-14.823c5.391-2.695,12.128-0.225,14.599,5.166c4.268,8.31,12.577,13.476,21.786,13.476
		c13.476,0,24.256-10.781,24.256-24.032v-16.171c-6.738,4.043-14.599,6.289-23.134,6.289c-24.705,0-44.918-19.989-45.143-44.694
		c0-0.225,0-0.225,0-0.225v-55.924c0-6.064,4.94-11.005,11.005-11.005c6.063,0,11.005,4.941,11.005,11.005v55.699
		c0,12.802,10.556,23.134,23.133,23.134c12.803,0,23.134-10.332,23.134-23.134v-55.699c0-6.064,4.94-11.005,11.005-11.005
		C918.796,124.104,923.737,129.045,923.737,135.108z"/>
</g>
</svg>
